<?xml version="1.0" encoding="utf-8"?>
<!-- Generator: Adobe Illustrator 24.2.1, SVG Export Plug-In . SVG Version: 6.00 Build 0)  -->
<svg version="1.1" id="Шар_1" xmlns="http://www.w3.org/2000/svg" xmlns:xlink="http://www.w3.org/1999/xlink" x="0px" y="0px"
	 viewBox="0 0 11 11" style="enable-background:new 0 0 11 11;" xml:space="preserve">
<style type="text/css">
	.st0{display:none;}
	.st1{fill:#FFFFFF;}
</style>
<g id="Шар_3" class="st0">
</g>
<g>
	<path d="M9.64,11H1.36C0.61,11,0,10.39,0,9.64V1.36C0,0.61,0.61,0,1.36,0h8.28C10.39,0,11,0.61,11,1.36v8.28
		C11,10.39,10.39,11,9.64,11z"/>
	<g>
		<path class="st1" d="M3.4,5.72c0-1.59,0.83-2.58,2.17-2.58c1.04,0,1.85,0.65,2,1.6H6.94C6.78,4.1,6.25,3.7,5.57,3.7
			c-0.95,0-1.54,0.78-1.54,2.02c0,1.24,0.59,2.01,1.54,2.01c0.69,0,1.21-0.35,1.37-0.92h0.63C7.4,7.71,6.62,8.3,5.58,8.3
			C4.24,8.3,3.4,7.31,3.4,5.72z"/>
	</g>
</g>
</svg>
