<?xml version="1.0" encoding="utf-8"?>
<!-- Generator: Adobe Illustrator 24.2.1, SVG Export Plug-In . SVG Version: 6.00 Build 0)  -->
<svg version="1.1" id="Шар_1" xmlns="http://www.w3.org/2000/svg" xmlns:xlink="http://www.w3.org/1999/xlink" x="0px" y="0px"
	 viewBox="0 0 11 11" style="enable-background:new 0 0 11 11;" xml:space="preserve">
<style type="text/css">
	.st0{display:none;}
	.st1{fill:#FFFFFF;}
</style>
<g id="Шар_3" class="st0">
</g>
<g>
	<g>
		<path class="st1" d="M9.64,11H1.36C0.61,11,0,10.39,0,9.64V1.36C0,0.61,0.61,0,1.36,0h8.28C10.39,0,11,0.61,11,1.36v8.28
			C11,10.39,10.39,11,9.64,11z"/>
		<path d="M9.64,0.5c0.48,0,0.86,0.39,0.86,0.86v8.28c0,0.48-0.39,0.86-0.86,0.86H1.36c-0.48,0-0.86-0.39-0.86-0.86V1.36
			c0-0.48,0.39-0.86,0.86-0.86H9.64 M9.64,0H1.36C0.61,0,0,0.61,0,1.36v8.28C0,10.39,0.61,11,1.36,11h8.28
			C10.39,11,11,10.39,11,9.64V1.36C11,0.61,10.39,0,9.64,0L9.64,0z"/>
	</g>
	<g>
		<path d="M5.19,8.18V3.8H3.6V3.25H7.4V3.8H5.81v4.38H5.19z"/>
	</g>
</g>
</svg>
