<?xml version="1.0" encoding="utf-8"?>
<!-- Generator: Adobe Illustrator 24.2.1, SVG Export Plug-In . SVG Version: 6.00 Build 0)  -->
<svg version="1.1" id="Шар_1" xmlns="http://www.w3.org/2000/svg" xmlns:xlink="http://www.w3.org/1999/xlink" x="0px" y="0px"
	 viewBox="0 0 11 11" style="enable-background:new 0 0 11 11;" xml:space="preserve">
<style type="text/css">
	.st0{display:none;}
	.st1{fill:#A5E2CC;}
	.st2{fill:#FFFFFF;}
</style>
<g id="Шар_3" class="st0">
</g>
<g>
	<path class="st1" d="M9.6,11H1.4C0.6,11,0,10.4,0,9.6V1.4C0,0.6,0.6,0,1.4,0h8.3C10.4,0,11,0.6,11,1.4v8.3C11,10.4,10.4,11,9.6,11z
		"/>
	<g>
		<path class="st2" d="M3.8,8.2V3.2h1.9c0.9,0,1.5,0.5,1.5,1.2c0,0.5-0.4,1-0.8,1.1v0.1C7,5.7,7.4,6.1,7.4,6.8
			c0,0.9-0.6,1.4-1.7,1.4H3.8z M4.4,5.4h1c0.8,0,1.1-0.3,1.1-0.8c0-0.5-0.4-0.8-1-0.8H4.4V5.4z M5.7,7.6c0.7,0,1.1-0.3,1.1-0.9
			S6.4,5.9,5.6,5.9H4.4v1.7L5.7,7.6L5.7,7.6z"/>
	</g>
</g>
<path class="st2" d="M9.6,0.5c0.5,0,0.9,0.4,0.9,0.9v8.3c0,0.5-0.4,0.9-0.9,0.9H1.4c-0.5,0-0.9-0.4-0.9-0.9V1.4
	c0-0.5,0.4-0.9,0.9-0.9H9.6 M9.6,0H1.4C0.6,0,0,0.6,0,1.4v8.3C0,10.4,0.6,11,1.4,11h8.3c0.8,0,1.4-0.6,1.4-1.4V1.4
	C11,0.6,10.4,0,9.6,0L9.6,0z"/>
</svg>
