<?xml version="1.0" encoding="utf-8"?>
<!-- Generator: Adobe Illustrator 24.3.0, SVG Export Plug-In . SVG Version: 6.00 Build 0)  -->
<svg version="1.1" id="Шар_1" xmlns="http://www.w3.org/2000/svg" xmlns:xlink="http://www.w3.org/1999/xlink" x="0px" y="0px"
	 viewBox="0 0 11.3 11.3" style="enable-background:new 0 0 11.3 11.3;" xml:space="preserve">
<style type="text/css">
	.st0{display:none;}
	.st1{fill:#FFFFFF;}
	.st2{fill:#8173FF;}
</style>
<g id="Шар_3" class="st0">
</g>
<g id="Шар_3_1_" class="st0">
</g>
<g>
	<g>
		<circle class="st1" cx="5.7" cy="5.7" r="5.7"/>
		<path d="M5.7,0.5c2.8,0,5.2,2.3,5.2,5.2s-2.3,5.2-5.2,5.2S0.5,8.5,0.5,5.7S2.8,0.5,5.7,0.5 M5.7,0C2.5,0,0,2.5,0,5.7
			s2.5,5.7,5.7,5.7s5.7-2.5,5.7-5.7S8.8,0,5.7,0L5.7,0z"/>
	</g>
</g>
<g>
	<ellipse class="st2" cx="5.7" cy="5.7" rx="5.1" ry="5.2"/>
	<g>
		<path class="st1" d="M7.4,9V8.1H3.8V3.6h0.6v4.1h2.4V3.6h0.6v4.1h0.6V9H7.4z"/>
	</g>
</g>
</svg>
