<?xml version="1.0" encoding="utf-8"?>
<!-- Generator: Adobe Illustrator 24.2.1, SVG Export Plug-In . SVG Version: 6.00 Build 0)  -->
<svg version="1.1" id="Шар_1" xmlns="http://www.w3.org/2000/svg" xmlns:xlink="http://www.w3.org/1999/xlink" x="0px" y="0px"
	 viewBox="0 0 11.3 11.3" style="enable-background:new 0 0 11.3 11.3;" xml:space="preserve">
<style type="text/css">
	.st0{display:none;}
	.st1{fill:#FFFFFF;}
</style>
<g id="Шар_3" class="st0">
</g>
<g>
	<g>
		<circle class="st1" cx="5.65" cy="5.65" r="5.65"/>
		<path d="M5.65,0.5c2.84,0,5.15,2.31,5.15,5.15S8.49,10.8,5.65,10.8c-2.84,0-5.15-2.31-5.15-5.15S2.81,0.5,5.65,0.5 M5.65,0
			C2.53,0,0,2.53,0,5.65s2.53,5.65,5.65,5.65c3.12,0,5.65-2.53,5.65-5.65S8.77,0,5.65,0L5.65,0z"/>
	</g>
	<g>
		<path d="M3.98,8.33V3.4h1.89c0.91,0,1.46,0.47,1.46,1.23c0,0.51-0.38,0.98-0.85,1.06v0.05c0.67,0.09,1.1,0.55,1.1,1.2
			c0,0.87-0.62,1.38-1.67,1.38H3.98z M4.6,5.53h0.98c0.75,0,1.12-0.27,1.12-0.79c0-0.5-0.36-0.79-0.97-0.79H4.6V5.53z M5.81,7.79
			c0.74,0,1.13-0.3,1.13-0.87s-0.4-0.86-1.19-0.86H4.6v1.73H5.81z"/>
	</g>
</g>
</svg>
