<?xml version="1.0" encoding="utf-8"?>
<!-- Generator: Adobe Illustrator 24.2.1, SVG Export Plug-In . SVG Version: 6.00 Build 0)  -->
<svg version="1.1" id="Шар_1" xmlns="http://www.w3.org/2000/svg" xmlns:xlink="http://www.w3.org/1999/xlink" x="0px" y="0px"
	 viewBox="0 0 11.3 11.3" style="enable-background:new 0 0 11.3 11.3;" xml:space="preserve">
<style type="text/css">
	.st0{display:none;}
	.st1{fill:#FFFFFF;}
</style>
<g id="Шар_3" class="st0">
</g>
<g>
	<g>
		<circle class="st1" cx="5.65" cy="5.65" r="5.65"/>
		<path d="M5.65,0.5c2.84,0,5.15,2.31,5.15,5.15S8.49,10.8,5.65,10.8c-2.84,0-5.15-2.31-5.15-5.15S2.81,0.5,5.65,0.5 M5.65,0
			C2.53,0,0,2.53,0,5.65s2.53,5.65,5.65,5.65c3.12,0,5.65-2.53,5.65-5.65S8.77,0,5.65,0L5.65,0z"/>
	</g>
	<g>
		<path d="M3.22,8.33V3.4h0.71l1.69,4.08h0.05L7.37,3.4h0.71v4.93H7.51V4.57H7.47L5.91,8.3H5.39L3.84,4.57H3.8v3.77H3.22z"/>
	</g>
</g>
</svg>
