<?xml version="1.0" encoding="utf-8"?>
<!-- Generator: Adobe Illustrator 24.2.1, SVG Export Plug-In . SVG Version: 6.00 Build 0)  -->
<svg version="1.1" id="Шар_1" xmlns="http://www.w3.org/2000/svg" xmlns:xlink="http://www.w3.org/1999/xlink" x="0px" y="0px"
	 viewBox="0 0 11.3 11.3" style="enable-background:new 0 0 11.3 11.3;" xml:space="preserve">
<style type="text/css">
	.st0{display:none;}
	.st1{fill:#FFFFFF;}
</style>
<g id="Шар_3" class="st0">
</g>
<g>
	<g>
		<circle class="st1" cx="5.65" cy="5.65" r="5.65"/>
		<path d="M5.65,0.5c2.84,0,5.15,2.31,5.15,5.15S8.49,10.8,5.65,10.8c-2.84,0-5.15-2.31-5.15-5.15S2.81,0.5,5.65,0.5 M5.65,0
			C2.53,0,0,2.53,0,5.65s2.53,5.65,5.65,5.65c3.12,0,5.65-2.53,5.65-5.65S8.77,0,5.65,0L5.65,0z"/>
	</g>
	<g>
		<path d="M3.55,5.87c0-1.59,0.83-2.58,2.17-2.58c1.04,0,1.85,0.65,2,1.6H7.09C6.93,4.25,6.4,3.85,5.72,3.85
			c-0.95,0-1.54,0.78-1.54,2.02c0,1.24,0.59,2.01,1.54,2.01c0.69,0,1.21-0.35,1.37-0.92h0.63C7.56,7.86,6.78,8.45,5.73,8.45
			C4.39,8.45,3.55,7.46,3.55,5.87z"/>
	</g>
</g>
</svg>
