<svg width="11" height="11" viewBox="0 0 11 11" fill="none" xmlns="http://www.w3.org/2000/svg">
<path d="M9.64 11H1.36C0.61 11 0 10.39 0 9.64V1.36C0 0.61 0.61 0 1.36 0H9.64C10.39 0 11 0.61 11 1.36V9.64C11 10.39 10.39 11 9.64 11Z" fill="#353434"/>
<path d="M3.83 8.18V3.25H5.72C6.63 3.25 7.18 3.72 7.18 4.48C7.18 4.99 6.8 5.46 6.33 5.54V5.6C7 5.68 7.42 6.14 7.42 6.8C7.42 7.67 6.8 8.18 5.75 8.18H3.83ZM4.44 5.37H5.42C6.17 5.37 6.54 5.1 6.54 4.58C6.54 4.08 6.18 3.79 5.57 3.79H4.44V5.37ZM5.66 7.64C6.4 7.64 6.79 7.34 6.79 6.77C6.79 6.2 6.39 5.9 5.6 5.9H4.44V7.63H5.66V7.64Z" fill="white"/>
</svg>
