<svg width="11" height="11" viewBox="0 0 11 11" fill="none" xmlns="http://www.w3.org/2000/svg">
<path d="M9.64 11H1.36C0.61 11 0 10.39 0 9.64V1.36C0 0.61 0.61 0 1.36 0H9.64C10.39 0 11 0.61 11 1.36V9.64C11 10.39 10.39 11 9.64 11Z" fill="#353434"/>
<path d="M3.4 5.72C3.4 4.13 4.23 3.14 5.57 3.14C6.61 3.14 7.42 3.79 7.57 4.74H6.94C6.78 4.1 6.25 3.7 5.57 3.7C4.62 3.7 4.03 4.48 4.03 5.72C4.03 6.96 4.62 7.73 5.57 7.73C6.26 7.73 6.78 7.38 6.94 6.81H7.57C7.4 7.71 6.62 8.3 5.58 8.3C4.24 8.3 3.4 7.31 3.4 5.72Z" fill="white"/>
</svg>
