<?xml version="1.0" encoding="utf-8"?>
<!-- Generator: Adobe Illustrator 24.3.0, SVG Export Plug-In . SVG Version: 6.00 Build 0)  -->
<svg version="1.1" id="Шар_1" xmlns="http://www.w3.org/2000/svg" xmlns:xlink="http://www.w3.org/1999/xlink" x="0px" y="0px"
	 viewBox="0 0 11 11" style="enable-background:new 0 0 11 11;" xml:space="preserve">
<style type="text/css">
	.st0{display:none;}
	.st1{fill:#404040;}
	.st2{fill:#FFFFFF;}
</style>
<g id="Шар_3" class="st0">
</g>
<g>
	<path class="st1" d="M9.6,11H1.4C0.6,11,0,10.4,0,9.6V1.4C0,0.6,0.6,0,1.4,0h8.3C10.4,0,11,0.6,11,1.4v8.3C11,10.4,10.4,11,9.6,11z
		"/>
	<g>
		<path class="st2" d="M3.4,5.7c0-1.6,0.8-2.6,2.2-2.6c1,0,1.8,0.7,2,1.6H6.9c-0.2-0.6-0.7-1-1.4-1C4.6,3.7,4,4.5,4,5.7s0.6,2,1.5,2
			c0.7,0,1.2-0.3,1.4-0.9h0.6c-0.2,0.9-1,1.5-2,1.5C4.2,8.3,3.4,7.3,3.4,5.7z"/>
	</g>
</g>
</svg>
