<svg width="11" height="11" viewBox="0 0 11 11" fill="none" xmlns="http://www.w3.org/2000/svg">
<g clip-path="url(#clip0)">
<path d="M9.6 10.5H1.4C0.876142 10.5 0.5 10.1239 0.5 9.6V1.4C0.5 0.876142 0.876142 0.5 1.4 0.5H9.7C10.1 0.5 10.5 0.851666 10.5 1.4V9.7C10.5 10.1 10.1483 10.5 9.6 10.5Z" fill="#A5E2CC" stroke="black"/>
<path d="M5.2 8.2V3.8H3.6V3.2H7.4V3.7H5.8V8.1H5.2V8.2Z" fill="black"/>
<path d="M9.6 0.5C10.1 0.5 10.5 0.9 10.5 1.4V9.7C10.5 10.2 10.1 10.6 9.6 10.6H1.4C0.9 10.6 0.5 10.2 0.5 9.7V1.4C0.5 0.9 0.9 0.5 1.4 0.5H9.6V0.5ZM9.6 0H1.4C0.6 0 0 0.6 0 1.4V9.7C0 10.4 0.6 11 1.4 11H9.7C10.5 11 11.1 10.4 11.1 9.6V1.4C11 0.6 10.4 0 9.6 0Z" fill="white"/>
</g>
<defs>
<clipPath id="clip0">
<rect width="11" height="11" fill="white"/>
</clipPath>
</defs>
</svg>
